<mxfile host="app.diagrams.net" agent="Mozilla/5.0 (Windows NT 10.0; Win64; x64) AppleWebKit/537.36 (KHTML, like Gecko) Chrome/131.0.0.0 Safari/537.36" version="25.0.3">
  <diagram name="Page-1" id="KKbyd2goxIFJ0KG0aQFO">
    <mxGraphModel dx="1273" dy="1130" grid="1" gridSize="10" guides="1" tooltips="1" connect="1" arrows="1" fold="1" page="1" pageScale="1" pageWidth="827" pageHeight="1169" math="0" shadow="0">
      <root>
        <mxCell id="0" />
        <mxCell id="1" parent="0" />
        <mxCell id="167bM5MeTfPUrio51Wuz-1" value="&lt;font style=&quot;vertical-align: inherit;&quot;&gt;&lt;font style=&quot;vertical-align: inherit;&quot;&gt;:Сервис записи&lt;/font&gt;&lt;/font&gt;" style="shape=umlLifeline;perimeter=lifelinePerimeter;whiteSpace=wrap;html=1;container=1;dropTarget=0;collapsible=0;recursiveResize=0;outlineConnect=0;portConstraint=eastwest;newEdgeStyle={&quot;curved&quot;:0,&quot;rounded&quot;:0};" vertex="1" parent="1">
          <mxGeometry x="2560" y="160" width="80" height="760" as="geometry" />
        </mxCell>
        <mxCell id="167bM5MeTfPUrio51Wuz-2" value="" style="html=1;points=[[0,0,0,0,5],[0,1,0,0,-5],[1,0,0,0,5],[1,1,0,0,-5]];perimeter=orthogonalPerimeter;outlineConnect=0;targetShapes=umlLifeline;portConstraint=eastwest;newEdgeStyle={&quot;curved&quot;:0,&quot;rounded&quot;:0};" vertex="1" parent="167bM5MeTfPUrio51Wuz-1">
          <mxGeometry x="32.5" y="567" width="15" height="143" as="geometry" />
        </mxCell>
        <mxCell id="167bM5MeTfPUrio51Wuz-52" style="edgeStyle=orthogonalEdgeStyle;rounded=0;orthogonalLoop=1;jettySize=auto;html=1;curved=0;exitX=1;exitY=1;exitDx=0;exitDy=-5;exitPerimeter=0;" edge="1" parent="1" source="167bM5MeTfPUrio51Wuz-5" target="167bM5MeTfPUrio51Wuz-20">
          <mxGeometry relative="1" as="geometry">
            <mxPoint x="1310" y="1125.5882352941178" as="targetPoint" />
            <Array as="points">
              <mxPoint x="1230" y="600" />
            </Array>
          </mxGeometry>
        </mxCell>
        <mxCell id="167bM5MeTfPUrio51Wuz-58" style="edgeStyle=orthogonalEdgeStyle;rounded=0;orthogonalLoop=1;jettySize=auto;html=1;curved=0;exitX=1;exitY=1;exitDx=0;exitDy=-5;exitPerimeter=0;" edge="1" parent="1" source="167bM5MeTfPUrio51Wuz-5" target="167bM5MeTfPUrio51Wuz-35">
          <mxGeometry relative="1" as="geometry">
            <mxPoint x="1300" y="1125.5882352941178" as="targetPoint" />
            <Array as="points">
              <mxPoint x="1230" y="720" />
            </Array>
          </mxGeometry>
        </mxCell>
        <mxCell id="167bM5MeTfPUrio51Wuz-59" value="&lt;font style=&quot;vertical-align: inherit;&quot;&gt;&lt;font style=&quot;vertical-align: inherit;&quot;&gt;Запрос на включение/выключение звука/видео&lt;/font&gt;&lt;/font&gt;" style="edgeLabel;html=1;align=center;verticalAlign=middle;resizable=0;points=[];" vertex="1" connectable="0" parent="167bM5MeTfPUrio51Wuz-58">
          <mxGeometry x="-0.2241" y="3" relative="1" as="geometry">
            <mxPoint x="15" as="offset" />
          </mxGeometry>
        </mxCell>
        <mxCell id="167bM5MeTfPUrio51Wuz-5" value="" style="html=1;points=[[0,0,0,0,5],[0,1,0,0,-5],[1,0,0,0,5],[1,1,0,0,-5]];perimeter=orthogonalPerimeter;outlineConnect=0;targetShapes=umlLifeline;portConstraint=eastwest;newEdgeStyle={&quot;curved&quot;:0,&quot;rounded&quot;:0};" vertex="1" parent="1">
          <mxGeometry x="1210" y="250" width="20" height="670" as="geometry" />
        </mxCell>
        <mxCell id="167bM5MeTfPUrio51Wuz-6" value=":Модуль Авторизации" style="shape=umlLifeline;perimeter=lifelinePerimeter;whiteSpace=wrap;html=1;container=1;dropTarget=0;collapsible=0;recursiveResize=0;outlineConnect=0;portConstraint=eastwest;newEdgeStyle={&quot;curved&quot;:0,&quot;rounded&quot;:0};" vertex="1" parent="1">
          <mxGeometry x="1323" y="170" width="100" height="760" as="geometry" />
        </mxCell>
        <mxCell id="167bM5MeTfPUrio51Wuz-7" value="" style="html=1;points=[[0,0,0,0,5],[0,1,0,0,-5],[1,0,0,0,5],[1,1,0,0,-5]];perimeter=orthogonalPerimeter;outlineConnect=0;targetShapes=umlLifeline;portConstraint=eastwest;newEdgeStyle={&quot;curved&quot;:0,&quot;rounded&quot;:0};" vertex="1" parent="167bM5MeTfPUrio51Wuz-6">
          <mxGeometry x="45" y="80" width="10" height="100" as="geometry" />
        </mxCell>
        <mxCell id="167bM5MeTfPUrio51Wuz-8" value="Ввод данных" style="html=1;verticalAlign=bottom;endArrow=block;curved=0;rounded=0;entryX=0;entryY=0;entryDx=0;entryDy=5;exitX=1;exitY=0;exitDx=0;exitDy=5;exitPerimeter=0;" edge="1" parent="1" source="167bM5MeTfPUrio51Wuz-5" target="167bM5MeTfPUrio51Wuz-7">
          <mxGeometry relative="1" as="geometry">
            <mxPoint x="1298" y="255" as="sourcePoint" />
          </mxGeometry>
        </mxCell>
        <mxCell id="167bM5MeTfPUrio51Wuz-9" value=":Модуль доступа" style="shape=umlLifeline;perimeter=lifelinePerimeter;whiteSpace=wrap;html=1;container=1;dropTarget=0;collapsible=0;recursiveResize=0;outlineConnect=0;portConstraint=eastwest;newEdgeStyle={&quot;curved&quot;:0,&quot;rounded&quot;:0};" vertex="1" parent="1">
          <mxGeometry x="1483" y="170" width="100" height="750" as="geometry" />
        </mxCell>
        <mxCell id="167bM5MeTfPUrio51Wuz-10" value="" style="html=1;points=[[0,0,0,0,5],[0,1,0,0,-5],[1,0,0,0,5],[1,1,0,0,-5]];perimeter=orthogonalPerimeter;outlineConnect=0;targetShapes=umlLifeline;portConstraint=eastwest;newEdgeStyle={&quot;curved&quot;:0,&quot;rounded&quot;:0};" vertex="1" parent="167bM5MeTfPUrio51Wuz-9">
          <mxGeometry x="44" y="150" width="10" height="170" as="geometry" />
        </mxCell>
        <mxCell id="167bM5MeTfPUrio51Wuz-11" value="" style="html=1;points=[[0,0,0,0,5],[0,1,0,0,-5],[1,0,0,0,5],[1,1,0,0,-5]];perimeter=orthogonalPerimeter;outlineConnect=0;targetShapes=umlLifeline;portConstraint=eastwest;newEdgeStyle={&quot;curved&quot;:0,&quot;rounded&quot;:0};" vertex="1" parent="167bM5MeTfPUrio51Wuz-9">
          <mxGeometry x="49" y="250" width="10" height="40" as="geometry" />
        </mxCell>
        <mxCell id="167bM5MeTfPUrio51Wuz-12" value="Проверка данных" style="html=1;align=left;spacingLeft=2;endArrow=block;rounded=0;edgeStyle=orthogonalEdgeStyle;curved=0;rounded=0;" edge="1" parent="167bM5MeTfPUrio51Wuz-9" target="167bM5MeTfPUrio51Wuz-11">
          <mxGeometry relative="1" as="geometry">
            <mxPoint x="54" y="230" as="sourcePoint" />
            <Array as="points">
              <mxPoint x="84" y="260" />
            </Array>
          </mxGeometry>
        </mxCell>
        <mxCell id="167bM5MeTfPUrio51Wuz-13" value="Передача данных" style="html=1;verticalAlign=bottom;endArrow=block;curved=0;rounded=0;entryX=0;entryY=0;entryDx=0;entryDy=5;" edge="1" parent="1" source="167bM5MeTfPUrio51Wuz-7" target="167bM5MeTfPUrio51Wuz-10">
          <mxGeometry relative="1" as="geometry">
            <mxPoint x="1383" y="325" as="sourcePoint" />
          </mxGeometry>
        </mxCell>
        <mxCell id="167bM5MeTfPUrio51Wuz-14" value=": Пользователь" style="shape=umlActor;verticalLabelPosition=bottom;verticalAlign=top;html=1;" vertex="1" parent="1">
          <mxGeometry x="1200" y="160" width="30" height="60" as="geometry" />
        </mxCell>
        <mxCell id="167bM5MeTfPUrio51Wuz-15" value="&lt;font style=&quot;vertical-align: inherit;&quot;&gt;&lt;font style=&quot;vertical-align: inherit;&quot;&gt;:Модуль создания конференции&lt;/font&gt;&lt;/font&gt;" style="shape=umlLifeline;perimeter=lifelinePerimeter;whiteSpace=wrap;html=1;container=1;dropTarget=0;collapsible=0;recursiveResize=0;outlineConnect=0;portConstraint=eastwest;newEdgeStyle={&quot;curved&quot;:0,&quot;rounded&quot;:0};" vertex="1" parent="1">
          <mxGeometry x="1670" y="160" width="100" height="760" as="geometry" />
        </mxCell>
        <mxCell id="167bM5MeTfPUrio51Wuz-16" value="" style="html=1;points=[[0,0,0,0,5],[0,1,0,0,-5],[1,0,0,0,5],[1,1,0,0,-5]];perimeter=orthogonalPerimeter;outlineConnect=0;targetShapes=umlLifeline;portConstraint=eastwest;newEdgeStyle={&quot;curved&quot;:0,&quot;rounded&quot;:0};" vertex="1" parent="167bM5MeTfPUrio51Wuz-15">
          <mxGeometry x="50" y="200" width="10" height="210" as="geometry" />
        </mxCell>
        <mxCell id="167bM5MeTfPUrio51Wuz-17" value="" style="html=1;points=[[0,0,0,0,5],[0,1,0,0,-5],[1,0,0,0,5],[1,1,0,0,-5]];perimeter=orthogonalPerimeter;outlineConnect=0;targetShapes=umlLifeline;portConstraint=eastwest;newEdgeStyle={&quot;curved&quot;:0,&quot;rounded&quot;:0};" vertex="1" parent="167bM5MeTfPUrio51Wuz-15">
          <mxGeometry x="50" y="300" width="10" height="40" as="geometry" />
        </mxCell>
        <mxCell id="167bM5MeTfPUrio51Wuz-18" value="&lt;font style=&quot;vertical-align: inherit;&quot;&gt;&lt;font style=&quot;vertical-align: inherit;&quot;&gt;Проверка корректности введенных данных&lt;/font&gt;&lt;/font&gt;" style="html=1;align=left;spacingLeft=2;endArrow=block;rounded=0;edgeStyle=orthogonalEdgeStyle;curved=0;rounded=0;" edge="1" parent="167bM5MeTfPUrio51Wuz-15" source="167bM5MeTfPUrio51Wuz-16" target="167bM5MeTfPUrio51Wuz-17">
          <mxGeometry relative="1" as="geometry">
            <mxPoint x="188" y="110" as="sourcePoint" />
            <Array as="points">
              <mxPoint x="100" y="280" />
              <mxPoint x="100" y="340" />
            </Array>
          </mxGeometry>
        </mxCell>
        <mxCell id="167bM5MeTfPUrio51Wuz-19" value="&lt;font style=&quot;vertical-align: inherit;&quot;&gt;&lt;font style=&quot;vertical-align: inherit;&quot;&gt;:Сервис конференций&lt;/font&gt;&lt;/font&gt;" style="shape=umlLifeline;perimeter=lifelinePerimeter;whiteSpace=wrap;html=1;container=1;dropTarget=0;collapsible=0;recursiveResize=0;outlineConnect=0;portConstraint=eastwest;newEdgeStyle={&quot;curved&quot;:0,&quot;rounded&quot;:0};" vertex="1" parent="1">
          <mxGeometry x="2010" y="160" width="100" height="760" as="geometry" />
        </mxCell>
        <mxCell id="167bM5MeTfPUrio51Wuz-20" value="" style="html=1;points=[[0,0,0,0,5],[0,1,0,0,-5],[1,0,0,0,5],[1,1,0,0,-5]];perimeter=orthogonalPerimeter;outlineConnect=0;targetShapes=umlLifeline;portConstraint=eastwest;newEdgeStyle={&quot;curved&quot;:0,&quot;rounded&quot;:0};" vertex="1" parent="167bM5MeTfPUrio51Wuz-19">
          <mxGeometry x="45" y="390" width="10" height="110" as="geometry" />
        </mxCell>
        <mxCell id="167bM5MeTfPUrio51Wuz-21" value="&lt;font style=&quot;vertical-align: inherit;&quot;&gt;&lt;font style=&quot;vertical-align: inherit;&quot;&gt;:База данных клиентов&lt;/font&gt;&lt;/font&gt;" style="shape=umlLifeline;perimeter=lifelinePerimeter;whiteSpace=wrap;html=1;container=1;dropTarget=0;collapsible=0;recursiveResize=0;outlineConnect=0;portConstraint=eastwest;newEdgeStyle={&quot;curved&quot;:0,&quot;rounded&quot;:0};" vertex="1" parent="1">
          <mxGeometry x="2283" y="160" width="100" height="760" as="geometry" />
        </mxCell>
        <mxCell id="167bM5MeTfPUrio51Wuz-22" value="" style="html=1;points=[[0,0,0,0,5],[0,1,0,0,-5],[1,0,0,0,5],[1,1,0,0,-5]];perimeter=orthogonalPerimeter;outlineConnect=0;targetShapes=umlLifeline;portConstraint=eastwest;newEdgeStyle={&quot;curved&quot;:0,&quot;rounded&quot;:0};" vertex="1" parent="167bM5MeTfPUrio51Wuz-21">
          <mxGeometry x="46" y="440" width="13" height="80" as="geometry" />
        </mxCell>
        <mxCell id="167bM5MeTfPUrio51Wuz-54" style="edgeStyle=orthogonalEdgeStyle;rounded=0;orthogonalLoop=1;jettySize=auto;html=1;curved=0;exitX=1;exitY=0;exitDx=0;exitDy=5;exitPerimeter=0;" edge="1" parent="167bM5MeTfPUrio51Wuz-21" source="167bM5MeTfPUrio51Wuz-22" target="167bM5MeTfPUrio51Wuz-22">
          <mxGeometry relative="1" as="geometry" />
        </mxCell>
        <mxCell id="167bM5MeTfPUrio51Wuz-55" value="&lt;font style=&quot;vertical-align: inherit;&quot;&gt;&lt;font style=&quot;vertical-align: inherit;&quot;&gt;Проверка, что есть такие пользователи&lt;/font&gt;&lt;/font&gt;" style="edgeLabel;html=1;align=center;verticalAlign=middle;resizable=0;points=[];" vertex="1" connectable="0" parent="167bM5MeTfPUrio51Wuz-54">
          <mxGeometry x="-0.0439" y="3" relative="1" as="geometry">
            <mxPoint x="5" y="-35" as="offset" />
          </mxGeometry>
        </mxCell>
        <mxCell id="167bM5MeTfPUrio51Wuz-23" value="&lt;font style=&quot;vertical-align: inherit;&quot;&gt;&lt;font style=&quot;vertical-align: inherit;&quot;&gt;Передача данных о созданной конференции&lt;/font&gt;&lt;/font&gt;" style="html=1;verticalAlign=bottom;endArrow=block;curved=0;rounded=0;entryX=0;entryY=0;entryDx=0;entryDy=5;" edge="1" parent="1" source="167bM5MeTfPUrio51Wuz-16" target="167bM5MeTfPUrio51Wuz-20">
          <mxGeometry relative="1" as="geometry">
            <mxPoint x="1938" y="345" as="sourcePoint" />
          </mxGeometry>
        </mxCell>
        <mxCell id="167bM5MeTfPUrio51Wuz-24" value="&lt;font style=&quot;vertical-align: inherit;&quot;&gt;&lt;font style=&quot;vertical-align: inherit;&quot;&gt;Передача данных&lt;/font&gt;&lt;/font&gt;" style="html=1;verticalAlign=bottom;endArrow=block;curved=0;rounded=0;entryX=0;entryY=0;entryDx=0;entryDy=5;" edge="1" parent="1">
          <mxGeometry relative="1" as="geometry">
            <mxPoint x="2065" y="630" as="sourcePoint" />
            <mxPoint x="2328" y="630" as="targetPoint" />
          </mxGeometry>
        </mxCell>
        <mxCell id="167bM5MeTfPUrio51Wuz-26" value="&lt;font style=&quot;vertical-align: inherit;&quot;&gt;&lt;font style=&quot;vertical-align: inherit;&quot;&gt;:Сервис сохранения&lt;/font&gt;&lt;/font&gt;" style="shape=umlLifeline;perimeter=lifelinePerimeter;whiteSpace=wrap;html=1;container=1;dropTarget=0;collapsible=0;recursiveResize=0;outlineConnect=0;portConstraint=eastwest;newEdgeStyle={&quot;curved&quot;:0,&quot;rounded&quot;:0};" vertex="1" parent="1">
          <mxGeometry x="2663" y="160" width="100" height="760" as="geometry" />
        </mxCell>
        <mxCell id="167bM5MeTfPUrio51Wuz-27" value="" style="html=1;points=[[0,0,0,0,5],[0,1,0,0,-5],[1,0,0,0,5],[1,1,0,0,-5]];perimeter=orthogonalPerimeter;outlineConnect=0;targetShapes=umlLifeline;portConstraint=eastwest;newEdgeStyle={&quot;curved&quot;:0,&quot;rounded&quot;:0};" vertex="1" parent="167bM5MeTfPUrio51Wuz-26">
          <mxGeometry x="45" y="680" width="10" height="65" as="geometry" />
        </mxCell>
        <mxCell id="167bM5MeTfPUrio51Wuz-28" value="&lt;font style=&quot;vertical-align: inherit;&quot;&gt;&lt;font style=&quot;vertical-align: inherit;&quot;&gt;&lt;font style=&quot;vertical-align: inherit;&quot;&gt;&lt;font style=&quot;vertical-align: inherit;&quot;&gt;&lt;font style=&quot;vertical-align: inherit;&quot;&gt;&lt;font style=&quot;vertical-align: inherit;&quot;&gt;&lt;font style=&quot;vertical-align: inherit;&quot;&gt;&lt;font style=&quot;vertical-align: inherit;&quot;&gt;&lt;font style=&quot;vertical-align: inherit;&quot;&gt;&lt;font style=&quot;vertical-align: inherit;&quot;&gt;Передача&amp;nbsp;&lt;/font&gt;&lt;/font&gt;&lt;/font&gt;&lt;/font&gt;&lt;/font&gt;&lt;/font&gt;&lt;/font&gt;&lt;/font&gt;&lt;/font&gt;&lt;/font&gt;&lt;div&gt;&lt;font style=&quot;vertical-align: inherit;&quot;&gt;&lt;font style=&quot;vertical-align: inherit;&quot;&gt;&lt;font style=&quot;vertical-align: inherit;&quot;&gt;&lt;font style=&quot;vertical-align: inherit;&quot;&gt;&lt;font style=&quot;vertical-align: inherit;&quot;&gt;&lt;font style=&quot;vertical-align: inherit;&quot;&gt;&lt;font style=&quot;vertical-align: inherit;&quot;&gt;&lt;font style=&quot;vertical-align: inherit;&quot;&gt;данных о&amp;nbsp;&lt;/font&gt;&lt;/font&gt;&lt;/font&gt;&lt;/font&gt;&lt;/font&gt;&lt;/font&gt;&lt;/font&gt;&lt;/font&gt;&lt;div&gt;&lt;font style=&quot;vertical-align: inherit;&quot;&gt;&lt;font style=&quot;vertical-align: inherit;&quot;&gt;&lt;font style=&quot;vertical-align: inherit;&quot;&gt;&lt;font style=&quot;vertical-align: inherit;&quot;&gt;&lt;font style=&quot;vertical-align: inherit;&quot;&gt;&lt;font style=&quot;vertical-align: inherit;&quot;&gt;&lt;font style=&quot;vertical-align: inherit;&quot;&gt;&lt;font style=&quot;vertical-align: inherit;&quot;&gt;место&amp;nbsp;&lt;/font&gt;&lt;/font&gt;&lt;/font&gt;&lt;/font&gt;&lt;/font&gt;&lt;/font&gt;&lt;/font&gt;&lt;/font&gt;&lt;/div&gt;&lt;div&gt;&lt;font style=&quot;vertical-align: inherit;&quot;&gt;&lt;font style=&quot;vertical-align: inherit;&quot;&gt;&lt;font style=&quot;vertical-align: inherit;&quot;&gt;&lt;font style=&quot;vertical-align: inherit;&quot;&gt;&lt;font style=&quot;vertical-align: inherit;&quot;&gt;&lt;font style=&quot;vertical-align: inherit;&quot;&gt;хранения записей&lt;/font&gt;&lt;/font&gt;&lt;/font&gt;&lt;/font&gt;&lt;/font&gt;&lt;/font&gt;&lt;/div&gt;&lt;/div&gt;" style="html=1;verticalAlign=bottom;endArrow=block;curved=0;rounded=0;entryX=0;entryY=0;entryDx=0;entryDy=5;" edge="1" parent="1" source="167bM5MeTfPUrio51Wuz-2">
          <mxGeometry x="0.0448" relative="1" as="geometry">
            <mxPoint x="2610" y="860" as="sourcePoint" />
            <mxPoint x="2708" y="860" as="targetPoint" />
            <mxPoint as="offset" />
          </mxGeometry>
        </mxCell>
        <mxCell id="167bM5MeTfPUrio51Wuz-33" value="&lt;font style=&quot;vertical-align: inherit;&quot;&gt;&lt;font style=&quot;vertical-align: inherit;&quot;&gt;Запрос на запись конференции&lt;/font&gt;&lt;/font&gt;" style="html=1;verticalAlign=bottom;endArrow=block;curved=0;rounded=0;" edge="1" parent="1">
          <mxGeometry relative="1" as="geometry">
            <mxPoint x="1230" y="850" as="sourcePoint" />
            <mxPoint x="2590" y="850" as="targetPoint" />
          </mxGeometry>
        </mxCell>
        <mxCell id="167bM5MeTfPUrio51Wuz-34" value="&lt;font style=&quot;vertical-align: inherit;&quot;&gt;&lt;font style=&quot;vertical-align: inherit;&quot;&gt;:Сервис управления звуком/видео&lt;/font&gt;&lt;/font&gt;" style="shape=umlLifeline;perimeter=lifelinePerimeter;whiteSpace=wrap;html=1;container=1;dropTarget=0;collapsible=0;recursiveResize=0;outlineConnect=0;portConstraint=eastwest;newEdgeStyle={&quot;curved&quot;:0,&quot;rounded&quot;:0};" vertex="1" parent="1">
          <mxGeometry x="2430" y="160" width="100" height="760" as="geometry" />
        </mxCell>
        <mxCell id="167bM5MeTfPUrio51Wuz-35" value="" style="html=1;points=[[0,0,0,0,5],[0,1,0,0,-5],[1,0,0,0,5],[1,1,0,0,-5]];perimeter=orthogonalPerimeter;outlineConnect=0;targetShapes=umlLifeline;portConstraint=eastwest;newEdgeStyle={&quot;curved&quot;:0,&quot;rounded&quot;:0};" vertex="1" parent="167bM5MeTfPUrio51Wuz-34">
          <mxGeometry x="45" y="540" width="10" height="80" as="geometry" />
        </mxCell>
        <mxCell id="167bM5MeTfPUrio51Wuz-38" value="&lt;font style=&quot;vertical-align: inherit;&quot;&gt;&lt;font style=&quot;vertical-align: inherit;&quot;&gt;Запрос на создание конференции&lt;/font&gt;&lt;/font&gt;" style="html=1;verticalAlign=bottom;endArrow=block;curved=0;rounded=0;" edge="1" parent="1">
          <mxGeometry relative="1" as="geometry">
            <mxPoint x="1220" y="527" as="sourcePoint" />
            <mxPoint x="1720" y="527" as="targetPoint" />
          </mxGeometry>
        </mxCell>
        <mxCell id="167bM5MeTfPUrio51Wuz-39" value="Успешная авторизация" style="html=1;verticalAlign=bottom;endArrow=open;dashed=1;endSize=8;curved=0;rounded=0;" edge="1" parent="1" source="167bM5MeTfPUrio51Wuz-9">
          <mxGeometry relative="1" as="geometry">
            <mxPoint x="1220" y="480" as="targetPoint" />
            <mxPoint x="1540" y="480" as="sourcePoint" />
          </mxGeometry>
        </mxCell>
        <mxCell id="167bM5MeTfPUrio51Wuz-40" value="" style="html=1;verticalAlign=bottom;endArrow=open;dashed=1;endSize=8;curved=0;rounded=0;" edge="1" parent="1" target="167bM5MeTfPUrio51Wuz-5">
          <mxGeometry relative="1" as="geometry">
            <mxPoint x="2059.323529411765" y="670" as="targetPoint" />
            <mxPoint x="2330" y="670" as="sourcePoint" />
            <Array as="points">
              <mxPoint x="2290" y="670" />
            </Array>
          </mxGeometry>
        </mxCell>
        <mxCell id="167bM5MeTfPUrio51Wuz-56" value="&lt;font style=&quot;vertical-align: inherit;&quot;&gt;&lt;font style=&quot;vertical-align: inherit;&quot;&gt;Пользователи добавлены&lt;/font&gt;&lt;/font&gt;" style="edgeLabel;html=1;align=center;verticalAlign=middle;resizable=0;points=[];" vertex="1" connectable="0" parent="167bM5MeTfPUrio51Wuz-40">
          <mxGeometry x="0.222" y="-1" relative="1" as="geometry">
            <mxPoint as="offset" />
          </mxGeometry>
        </mxCell>
        <mxCell id="167bM5MeTfPUrio51Wuz-46" value="&lt;font style=&quot;vertical-align: inherit;&quot;&gt;&lt;font style=&quot;vertical-align: inherit;&quot;&gt;Конференция завершена и запись сохранена&lt;/font&gt;&lt;/font&gt;" style="html=1;verticalAlign=bottom;endArrow=open;dashed=1;endSize=8;curved=0;rounded=0;" edge="1" parent="1" source="167bM5MeTfPUrio51Wuz-27">
          <mxGeometry relative="1" as="geometry">
            <mxPoint x="1230" y="890" as="targetPoint" />
            <mxPoint x="2700" y="890" as="sourcePoint" />
          </mxGeometry>
        </mxCell>
        <mxCell id="167bM5MeTfPUrio51Wuz-47" value="&lt;font style=&quot;vertical-align: inherit;&quot;&gt;&lt;font style=&quot;vertical-align: inherit;&quot;&gt;Переход на окно с созданной конференцией&lt;/font&gt;&lt;/font&gt;" style="html=1;verticalAlign=bottom;endArrow=open;dashed=1;endSize=8;curved=0;rounded=0;" edge="1" parent="1" source="167bM5MeTfPUrio51Wuz-15">
          <mxGeometry relative="1" as="geometry">
            <mxPoint x="1230" y="560" as="targetPoint" />
            <mxPoint x="2020" y="560" as="sourcePoint" />
          </mxGeometry>
        </mxCell>
        <mxCell id="167bM5MeTfPUrio51Wuz-48" value="&lt;font style=&quot;vertical-align: inherit;&quot;&gt;&lt;font style=&quot;vertical-align: inherit;&quot;&gt;Звук/видео включен/выключен&lt;/font&gt;&lt;/font&gt;" style="html=1;verticalAlign=bottom;endArrow=open;dashed=1;endSize=8;curved=0;rounded=0;" edge="1" parent="1" source="167bM5MeTfPUrio51Wuz-35">
          <mxGeometry relative="1" as="geometry">
            <mxPoint x="1230" y="770" as="targetPoint" />
            <mxPoint x="2470" y="770" as="sourcePoint" />
          </mxGeometry>
        </mxCell>
        <mxCell id="167bM5MeTfPUrio51Wuz-53" value="&lt;font style=&quot;vertical-align: inherit;&quot;&gt;&lt;font style=&quot;vertical-align: inherit;&quot;&gt;Запрос на добавление учатников&lt;/font&gt;&lt;/font&gt;" style="text;html=1;align=center;verticalAlign=middle;resizable=0;points=[];autosize=1;strokeColor=none;fillColor=none;" vertex="1" parent="1">
          <mxGeometry x="1505" y="578" width="210" height="30" as="geometry" />
        </mxCell>
      </root>
    </mxGraphModel>
  </diagram>
</mxfile>
